<?xml version="1.0" encoding="utf-8"?>
<svg viewBox="0 0 500 500" xmlns="http://www.w3.org/2000/svg" xmlns:xlink="http://www.w3.org/1999/xlink" xmlns:bx="https://boxy-svg.com">
  <defs>
    <path id="path-0" style="fill: none;" d="M 45.547 177.254 C 66.113 157.655 82.093 144.098 89.819 124.783 C 92.983 115.406 95.029 103.175 99.657 98.547 C 109.058 89.966 119.009 87.756 128.352 82.15 C 146.634 74.475 177.578 67.928 189.022 64.114 C 208.461 60.166 207.766 64.756 223.455 60.834 C 247.535 60.834 270.41 58.789 290.683 63.294 C 316.463 66.414 336.344 66.144 353.812 73.132 C 375.545 77.574 391.721 83.252 406.283 91.989 C 418.157 98.745 425.253 112.713 430.059 122.323 C 435.342 132.889 438.791 140.608 442.357 147.739 L 443.176 149.379 C 444.232 151.49 447.276 153.667 447.276 155.937"/>
    <path id="path-1" style="fill: none;" d="M 34.944 168.832 C 38.294 149.977 65.079 137.272 72.602 127.242 C 82.783 114.761 92.077 106.339 101.579 100.004 C 119.904 102.076 130.466 85.171 141.47 82.97 C 166.226 75.265 186.596 69.77 207.921 67.105 C 236.618 66.285 262.11 71.324 285.764 73.952 C 312.501 75.806 330.361 78.706 348.073 84.61 C 374.28 95.664 394.2 100.604 412.022 112.485 C 431.768 125.544 443.508 136.349 453.835 151.838 L 454.654 153.478 C 455.201 154.024 455.748 154.571 456.294 155.117"/>
    <style bx:fonts="ADLaM Display">@import url(https://fonts.googleapis.com/css2?family=ADLaM+Display%3Aital%2Cwght%400%2C400&amp;display=swap);</style>
  </defs>
  <g transform="matrix(0.050129, 0, 0, -0.050129, -4.929708, 538.908691)" fill="#000000" stroke="none" style="">
    <path d="M4805 8963 c-126 -11 -327 -38 -445 -59 -172 -32 -261 -54 -435 -111 -552 -179 -1050 -458 -1465 -819 -91 -79 -344 -330 -427 -424 -413 -468 -714 -1037 -873 -1655 -81 -313 -110 -531 -117 -865 -6 -280 12 -490 63 -769 46 -254 146 -591 237 -801 48 -113 65 -140 83 -140 29 0 26 33 -9 115 -150 344 -251 727 -297 1125 -18 155 -24 540 -11 690 63 727 336 1443 770 2015 155 206 418 487 611 655 539 469 1257 815 1930 929 268 46 395 56 680 55 434 0 749 -46 1120 -161 673 -208 1295 -600 1797 -1131 73 -77 141 -149 150 -161 16 -20 20 -20 38 -7 18 13 18 16 5 42 -23 44 -401 419 -530 526 -435 359 -872 601 -1395 773 -288 95 -535 145 -855 174 -105 10 -529 13 -625 4z"/>
    <path d="M5255 8531 c-423 -141 -465 -162 -480 -232 -9 -41 19 -80 71 -97 31 -10 60 -11 137 -3 206 23 315 11 395 -42 150 -101 109 -287 -89 -413 -41 -25 -193 -104 -202 -104 -3 0 -17 24 -31 54 -48 98 -150 171 -283 202 -57 14 -103 15 -288 9 -121 -4 -240 -6 -265 -5 -151 5 -156 138 -9 257 35 29 137 101 226 160 89 59 163 113 163 120 0 29 -27 18 -162 -63 -247 -150 -339 -223 -374 -298 -44 -94 -23 -174 55 -220 38 -22 102 -25 411 -16 180 5 251 -5 330 -45 76 -38 167 -152 142 -177 -11 -11 -206 -54 -307 -68 -44 -6 -296 -15 -560 -20 -264 -5 -524 -12 -579 -15 -319 -19 -552 -115 -718 -294 -192 -207 -241 -487 -139 -792 38 -112 117 -278 257 -539 156 -289 185 -384 183 -602 -1 -148 -15 -262 -18 -143 -5 234 -91 476 -282 787 -45 73 -98 161 -118 195 -20 35 -39 63 -44 63 -13 0 -201 -132 -277 -195 -132 -110 -281 -273 -369 -404 -98 -147 -157 -268 -205 -419 -73 -232 -71 -205 -71 -1097 0 -914 -4 -863 90 -1060 181 -382 688 -798 1275 -1048 327 -139 701 -252 1032 -312 306 -56 532 -77 867 -82 507 -8 905 36 1350 148 241 61 366 101 594 191 434 171 778 380 1048 636 237 225 373 425 432 632 20 73 21 99 24 805 4 765 0 887 -38 1063 -84 389 -317 730 -693 1016 l-88 68 -34 -18 c-19 -10 -34 -21 -33 -24 0 -3 41 -34 91 -70 108 -77 282 -241 373 -350 36 -43 65 -81 65 -84 0 -3 -15 -6 -34 -6 -26 0 -41 8 -63 33 -122 140 -317 314 -466 416 l-48 32 -34 -21 c-19 -12 -35 -25 -35 -30 0 -5 27 -25 60 -45 110 -67 244 -178 377 -312 130 -131 134 -134 190 -144 119 -22 126 -25 151 -71 12 -24 22 -46 22 -50 0 -5 -70 -8 -156 -8 -89 0 -173 -5 -195 -11 -50 -16 -105 -61 -132 -112 -21 -41 -22 -52 -25 -414 -3 -387 -1 -413 38 -413 20 0 20 9 20 368 l0 368 28 54 c43 84 61 90 278 90 l181 0 16 -74 c48 -220 45 -368 -12 -543 -30 -92 -87 -214 -123 -266 -18 -25 -25 -27 -85 -27 l-66 0 20 23 c55 62 125 199 157 307 42 142 40 357 -4 456 l-20 47 -127 -5 c-122 -5 -127 -6 -150 -32 l-23 -27 0 -394 0 -395 28 -31 28 -32 140 9 139 9 33 50 c60 91 120 227 142 325 12 52 24 106 28 120 14 59 22 -350 19 -930 -4 -602 -5 -628 -26 -705 -46 -172 -148 -328 -345 -532 -228 -235 -485 -412 -861 -590 -498 -236 -1002 -364 -1680 -428 -305 -29 -769 -13 -1130 40 -740 109 -1411 366 -1893 724 -241 180 -497 462 -578 636 -72 157 -68 100 -71 1010 l-2 820 24 -105 c28 -132 62 -218 132 -341 l55 -96 91 -7 c170 -12 201 -9 228 20 l24 26 0 399 0 399 -28 27 c-25 25 -35 28 -113 32 -47 2 -105 0 -129 -3 -42 -7 -44 -9 -62 -59 -15 -42 -18 -82 -17 -207 0 -138 3 -164 27 -243 33 -106 70 -183 126 -257 l42 -55 -58 -3 c-53 -3 -60 -1 -81 25 -65 81 -143 274 -167 410 -23 133 -18 222 26 421 l12 52 186 0 c210 0 228 -5 272 -76 24 -39 24 -39 29 -421 3 -210 9 -385 13 -389 4 -5 16 -3 25 2 15 10 17 46 20 388 2 366 2 378 -19 426 -23 54 -73 104 -125 126 -24 10 -81 14 -199 14 -91 0 -165 2 -165 5 0 3 14 27 30 54 29 46 34 50 83 56 113 16 127 24 263 163 116 117 344 302 373 302 10 0 41 -51 41 -68 0 -5 -26 -26 -57 -47 -96 -63 -211 -163 -284 -248 -38 -44 -69 -86 -69 -92 0 -25 28 -23 51 2 46 49 238 210 314 262 42 29 82 50 89 48 19 -8 150 -275 181 -370 42 -128 58 -260 52 -447 -3 -91 -8 -173 -12 -183 -4 -9 -39 -34 -78 -54 -84 -44 -234 -152 -324 -231 -89 -79 -213 -221 -213 -244 0 -44 32 -24 161 104 138 137 198 185 344 276 l85 52 0 -30 c0 -16 4 -30 9 -30 27 0 42 17 57 62 16 49 18 51 99 88 118 55 285 123 400 163 210 73 456 185 1028 469 131 65 240 118 242 118 14 0 2028 1003 2625 1307 680 347 884 446 925 451 182 20 344 -215 278 -403 -22 -60 -65 -95 -220 -176 -60 -31 -236 -124 -393 -206 -157 -82 -323 -169 -370 -192 -47 -24 -175 -92 -285 -151 -213 -115 -581 -306 -940 -490 -121 -62 -257 -132 -302 -156 -99 -54 -2342 -1175 -2468 -1234 -103 -49 -141 -73 -156 -101 -9 -18 -8 -19 18 -13 15 3 145 63 288 131 403 194 2178 1086 2675 1344 245 127 542 280 660 341 118 61 301 157 405 213 105 56 318 169 475 250 493 256 564 295 602 332 88 86 109 231 51 355 -87 185 -267 261 -428 182 -99 -48 -1276 -646 -1474 -747 l-182 -94 -57 23 c-152 61 -570 144 -834 166 l-136 11 -54 -26 c-64 -33 -263 -198 -295 -246 -23 -33 -23 -38 -23 -327 l0 -294 -200 -98 -200 -98 0 260 c0 281 -5 336 -27 336 -29 0 -35 -54 -32 -338 l3 -282 -215 -106 c-389 -192 -734 -352 -835 -387 -168 -59 -423 -157 -513 -197 -47 -21 -87 -36 -89 -35 -2 2 6 34 18 72 36 117 51 204 57 329 8 179 -17 323 -97 559 -17 50 -33 97 -36 106 -4 13 14 25 83 53 273 115 492 179 821 242 33 7 31 51 -4 60 -98 25 -537 -102 -911 -263 -14 -6 -30 64 -17 77 34 33 415 166 649 226 133 34 163 38 270 38 104 0 138 -4 254 -34 l134 -34 261 32 c143 18 278 33 299 32 l37 0 0 -325 c0 -223 3 -325 11 -325 6 0 19 5 30 10 18 10 19 25 19 336 0 360 1 351 -67 415 -58 55 -224 184 -258 202 -52 26 -96 29 -240 12 -486 -55 -967 -168 -1327 -313 l-96 -39 5 36 c9 55 50 160 85 213 47 74 149 161 246 211 155 80 278 110 706 177 409 63 567 104 731 189 117 61 200 138 248 231 20 40 37 86 38 104 2 64 9 72 136 136 212 107 316 230 316 371 0 107 -76 206 -192 250 -52 20 -70 21 -276 18 -219 -4 -220 -4 -223 18 -7 46 56 75 428 203 287 98 353 123 358 138 8 26 -62 8 -373 -97z m-239 -1023 c-17 -113 -100 -209 -243 -285 -152 -81 -348 -130 -768 -193 -337 -50 -468 -81 -610 -142 -85 -37 -196 -107 -249 -156 -99 -94 -177 -263 -191 -412 -8 -88 8 -240 35 -335 10 -36 14 -63 9 -60 -5 4 -9 10 -9 15 0 4 -49 112 -110 238 -149 312 -186 456 -161 633 26 186 104 323 250 439 77 62 153 101 269 140 148 49 268 60 792 70 261 5 516 12 565 15 100 7 283 37 360 59 28 8 54 15 59 15 5 1 6 -18 2 -41z m889 -909 c215 -27 401 -63 620 -121 l40 -10 -625 -314 c-344 -172 -628 -313 -632 -313 -5 -1 -8 116 -8 259 l0 260 65 0 c126 0 578 -59 684 -90 25 -7 40 -6 60 5 33 16 55 41 44 48 -34 21 -323 67 -602 97 -101 10 -186 21 -188 24 -3 2 14 17 37 32 l41 28 177 -18 c282 -27 575 -74 656 -105 24 -10 35 -8 72 14 24 14 44 30 44 34 0 11 -55 25 -240 60 -197 38 -267 47 -470 66 -90 9 -165 17 -167 19 -2 1 18 14 44 29 55 30 79 30 348 -4z m-1225 -3 l45 -24 -35 -6 c-111 -19 -357 -46 -414 -46 -67 0 -136 20 -136 39 0 6 3 11 8 12 4 0 86 11 182 23 233 32 292 32 350 2z m-610 -72 c19 -34 71 -60 151 -74 71 -13 114 -10 359 26 91 13 176 24 191 24 14 0 47 -15 75 -32 l49 -33 -35 -3 c-39 -3 -214 -24 -388 -47 l-113 -15 -167 37 c-199 44 -274 46 -427 14 -155 -32 -416 -112 -576 -176 -76 -30 -144 -58 -153 -61 -13 -5 -16 1 -16 30 0 36 2 38 68 67 95 43 392 142 552 183 105 28 279 64 411 85 3 1 12 -11 19 -25z m-1382 -461 c15 -33 15 -43 2 -43 -16 0 -154 -95 -229 -158 -73 -61 -200 -189 -239 -239 -23 -31 -94 -64 -108 -50 -9 9 70 104 184 221 96 98 341 296 367 296 5 0 16 -12 23 -27z m-378 -1283 c0 -203 -2 -370 -5 -370 -3 0 -31 39 -62 86 -126 194 -175 399 -142 591 l11 63 99 0 99 0 0 -370z m5810 313 c21 -99 8 -252 -30 -365 -31 -95 -144 -301 -165 -302 -10 -1 -20 686 -10 711 3 9 32 13 99 13 l95 0 11 -57z"/>
    <path d="M3810 8345 c0 -18 5 -25 19 -25 20 0 31 17 24 38 -3 6 -13 12 -24 12 -14 0 -19 -7 -19 -25z"/>
    <path d="M6005 8304 c-19 -19 -16 -43 6 -57 37 -23 69 29 37 61 -16 16 -23 15 -43 -4z"/>
    <path d="M6679 8144 c-9 -11 -10 -20 -2 -32 15 -24 44 -27 59 -7 28 38 -27 75 -57 39z"/>
    <path d="M3315 7970 l-29 -30 35 -36 36 -35 31 26 c39 33 40 44 4 78 -35 34 -42 34 -77 -3z"/>
    <path d="M6227 7882 c-15 -15 -27 -33 -27 -38 0 -6 16 -26 36 -45 l35 -34 36 38 35 39 -33 34 c-18 19 -38 34 -44 34 -6 0 -23 -13 -38 -28z"/>
    <path d="M7274 7765 c-4 -9 -2 -21 4 -27 15 -15 44 -1 40 19 -4 23 -36 29 -44 8z"/>
    <path d="M5969 7449 c-9 -18 -8 -25 8 -41 22 -22 49 -16 58 13 14 43 -44 67 -66 28z"/>
    <path d="M7616 7454 c-8 -20 1 -34 20 -34 8 0 14 10 14 25 0 28 -24 34 -34 9z"/>
    <path d="M2420 7385 c-15 -18 -10 -45 13 -59 15 -9 22 -7 38 13 18 22 18 25 3 42 -20 23 -37 24 -54 4z"/>
    <path d="M6838 7340 l-33 -29 35 -31 c19 -16 40 -30 46 -30 5 0 23 13 38 29 l27 28 -26 32 c-33 39 -46 39 -87 1z"/>
    <path d="M8373 7264 c-23 -8 -135 -63 -250 -123 -212 -110 -959 -489 -1272 -646 l-173 -86 43 -22 c61 -30 159 -131 193 -201 21 -41 32 -81 36 -130 6 -66 7 -69 18 -43 7 16 12 47 12 70 0 52 14 79 23 45 4 -12 7 -43 7 -67 0 -36 2 -42 14 -32 8 7 17 35 21 64 9 69 14 87 27 87 7 0 8 -22 3 -65 -3 -36 -4 -65 -2 -65 19 0 37 39 43 90 6 52 18 81 28 69 2 -2 0 -30 -3 -61 -4 -32 -4 -58 0 -58 18 0 48 54 54 98 10 78 25 86 25 13 0 -54 2 -62 14 -52 8 7 17 31 21 54 9 58 15 77 25 77 4 0 6 -28 3 -62 l-6 -63 21 19 c21 18 25 31 37 114 10 61 19 44 16 -31 l-2 -62 20 25 c20 25 31 63 31 106 0 12 5 26 11 30 8 5 10 -11 7 -55 -2 -33 -1 -61 3 -61 16 0 30 32 39 86 14 87 34 96 27 12 -10 -107 27 -81 41 29 10 78 30 81 24 3 -4 -52 -2 -59 12 -54 16 6 36 61 36 99 0 11 5 27 11 35 7 11 9 -1 7 -43 -2 -31 0 -57 4 -57 14 0 36 45 43 85 11 72 27 77 21 6 -5 -58 -5 -62 11 -50 20 18 43 71 43 102 0 14 7 30 15 37 15 12 15 8 0 -95 l-5 -30 24 26 c14 16 28 51 35 88 7 35 16 59 22 55 5 -3 8 -13 5 -22 -2 -10 -8 -36 -11 -60 -7 -42 -6 -43 14 -30 23 14 41 57 41 98 0 15 7 33 15 40 13 11 14 6 9 -36 -3 -27 -7 -55 -10 -61 -2 -7 0 -13 5 -13 18 0 41 39 52 90 18 87 31 95 25 15 l-6 -70 25 28 c17 19 25 40 25 66 0 20 7 46 16 57 14 18 15 14 9 -43 -6 -61 1 -77 22 -50 6 6 16 40 23 75 18 86 34 92 25 8 -6 -58 -5 -65 8 -60 19 7 37 55 37 98 0 30 15 65 23 56 2 -3 1 -31 -2 -62 -4 -32 -4 -58 -1 -58 17 0 40 40 53 93 22 83 31 84 24 2 l-6 -70 24 28 c14 15 25 40 26 55 0 15 7 43 15 62 14 34 14 33 9 -35 -5 -69 -5 -69 15 -49 11 11 25 46 31 79 17 89 33 95 25 10 l-6 -70 24 27 c17 19 26 44 31 87 4 34 12 61 17 61 7 0 9 -21 4 -61 -4 -46 -3 -60 7 -57 18 7 36 47 42 101 10 77 29 58 21 -20 l-7 -68 21 21 c14 13 25 44 32 87 14 85 33 89 25 6 -4 -43 -2 -59 6 -56 31 10 47 136 27 207 -16 58 -72 132 -120 161 -59 36 -96 42 -147 23z m26 -78 c30 -16 92 -81 111 -116 21 -40 4 -30 -31 16 -19 26 -54 62 -78 80 -47 36 -48 43 -2 20z m-53 -45 c34 -21 110 -108 101 -117 -3 -3 -23 13 -44 37 -21 23 -56 55 -77 71 -44 31 -28 38 20 9z m-61 -51 c46 -31 85 -75 85 -94 0 -6 -21 12 -48 39 -26 28 -58 58 -72 67 -14 9 -21 17 -17 17 5 1 28 -12 52 -29z m-25 -75 c13 -14 21 -25 18 -25 -2 0 -15 11 -28 25 -13 14 -21 25 -18 25 2 0 15 -11 28 -25z" style="fill: rgb(107, 107, 107);"/>
    <path d="M5582 7098 c2 -15 10 -23 23 -23 30 0 27 39 -3 43 -20 3 -23 0 -20 -20z"/>
    <path d="M2156 7018 c-19 -27 -4 -61 26 -56 34 5 45 33 24 57 -24 26 -31 26 -50 -1z"/>
    <path d="M6384 6995 c-4 -9 -2 -21 4 -27 15 -15 44 -1 40 19 -4 23 -36 29 -44 8z"/>
    <path d="M5043 6704 c-7 -18 11 -39 26 -30 17 11 13 46 -4 46 -9 0 -18 -7 -22 -16z"/>
    <path d="M8721 6617 c-8 -10 -1 -34 30 -98 198 -406 326 -918 355 -1414 15 -273 -41 -758 -131 -1115 -49 -194 -141 -462 -201 -582 -13 -26 -21 -54 -18 -62 6 -16 32 -29 44 -21 29 18 192 478 240 680 131 541 156 1021 79 1520 -52 332 -200 800 -331 1048 -31 58 -47 68 -67 44z"/>
    <path d="M6558 6350 c-29 -15 -331 -167 -671 -337 l-618 -310 32 -14 c92 -37 209 -211 229 -338 15 -100 29 -99 37 3 7 83 23 86 23 5 0 -52 2 -60 16 -55 9 3 17 6 19 6 2 0 7 32 11 70 9 91 24 100 24 14 0 -65 1 -67 19 -50 12 11 22 39 27 79 l9 62 3 -57 c2 -32 7 -58 12 -58 21 0 38 33 50 94 16 88 34 86 25 -1 l-7 -68 21 20 c14 14 24 40 29 80 4 34 13 60 20 63 13 4 13 -9 -5 -101 -5 -26 -3 -28 15 -18 22 12 24 16 44 106 l13 60 3 -62 c2 -35 7 -63 11 -63 18 0 32 30 41 86 15 88 34 96 26 10 -7 -70 -7 -70 13 -52 12 11 25 43 32 78 17 85 34 87 26 3 l-7 -69 20 20 c13 12 25 47 33 88 15 82 28 77 21 -8 l-5 -61 25 28 c18 20 26 39 26 66 0 20 7 46 15 57 15 17 15 14 9 -43 -3 -35 -3 -63 1 -63 19 0 38 38 48 95 14 82 31 85 25 5 -2 -33 -1 -60 2 -60 17 0 41 41 46 76 9 65 14 84 23 84 5 0 7 -30 4 -67 l-4 -68 24 26 c16 18 26 44 30 80 9 77 24 80 19 4 -7 -102 31 -82 50 27 16 89 32 100 25 16 -4 -38 -3 -68 1 -68 21 1 34 23 43 81 17 97 28 105 29 19 1 -75 1 -75 19 -53 11 14 22 48 26 83 10 83 25 86 25 4 0 -66 0 -67 19 -50 12 11 24 44 32 87 16 88 34 92 26 4 -5 -52 -4 -63 8 -59 19 8 35 58 35 110 0 24 5 46 10 49 6 4 10 -18 10 -59 0 -104 35 -79 47 34 8 81 26 77 21 -5 -3 -66 3 -80 22 -46 57 107 -100 358 -251 401 -21 6 -40 2 -81 -20z m121 -70 c54 -43 106 -111 99 -131 -2 -6 -23 14 -47 45 -25 32 -63 72 -85 91 -58 48 -29 44 33 -5z m-95 -33 c46 -26 120 -110 114 -128 -2 -7 -18 8 -36 33 -18 26 -54 61 -82 79 -27 18 -50 34 -50 36 0 8 18 1 54 -20z m-79 -36 c45 -27 92 -76 110 -113 13 -26 4 -20 -42 30 -32 35 -71 72 -88 82 -38 25 -20 26 20 1z m-9 -95 c30 -30 54 -61 54 -68 0 -7 -17 6 -36 30 -20 24 -53 54 -73 67 -24 17 -30 25 -18 25 10 0 43 -24 73 -54z m-751 -683 c-9 -37 -18 -20 -9 19 4 18 9 27 11 20 3 -7 2 -24 -2 -39z" style="fill: rgb(107, 107, 107);"/>
    <path d="M1962 6337 c-18 -18 -32 -37 -32 -43 0 -6 16 -25 35 -44 l35 -34 35 34 c19 19 35 39 35 46 0 10 -64 74 -73 74 -2 0 -17 -15 -35 -33z"/>
    <path d="M4070 5825 c0 -388 0 -395 20 -395 20 0 20 7 20 395 0 388 0 395 -20 395 -20 0 -20 -7 -20 -395z"/>
    <path d="M8375 6104 c-17 -17 -18 -25 -9 -48 14 -37 71 -5 59 33 -8 26 -31 33 -50 15z"/>
    <path d="M7302 5951 c-18 -8 -32 -18 -32 -22 0 -4 37 -30 83 -58 123 -74 269 -186 383 -294 67 -64 105 -93 113 -87 24 14 0 50 -102 154 -103 103 -231 207 -349 282 -63 39 -66 40 -96 25z"/>
    <path d="M1504 5666 c-10 -26 4 -48 28 -44 17 2 23 10 23 28 0 18 -6 26 -23 28 -13 2 -25 -3 -28 -12z"/>
    <path d="M 5204.726 5672 C 5204.726 5667 5228.726 5647 5257.726 5627 C 5324.726 5581 5414.726 5462 5414.726 5420 C 5414.726 5401 5396.726 5419 5359.726 5475 C 5316.726 5540 5265.726 5587 5204.726 5618 L 5159.726 5642 L 4834.726 5482 C 4655.726 5395 4481.726 5310 4447.726 5295 C 4412.726 5280 4384.726 5265 4384.726 5261 C 4384.726 5258 4405.726 5242 4430.726 5225 C 4541.726 5152 4644.726 4971 4644.726 4848 C 4644.726 4827 4648.726 4810 4654.726 4810 C 4670.726 4810 4676.726 4855 4673.726 4933 C 4668.726 5021 4627.726 5112 4563.726 5178 C 4540.726 5201 4526.726 5220 4531.726 5220 C 4546.726 5220 4629.726 5128 4649.726 5090 C 4682.726 5027 4704.726 4947 4704.726 4893 C 4704.726 4864 4708.726 4840 4714.726 4840 C 4733.726 4840 4744.726 4880 4744.726 4950 C 4744.726 4995 4748.726 5019 4754.726 5015 C 4760.726 5012 4764.726 4980 4764.726 4944 C 4764.726 4893 4767.726 4880 4779.726 4880 C 4799.726 4880 4814.726 4920 4815.726 4973 C 4815.726 4996 4819.726 5024 4823.726 5034 C 4830.726 5052 4831.726 5052 4837.726 5029 C 4841.726 5016 4844.726 4983 4844.726 4955 L 4845.726 4905 L 4864.726 4929 C 4879.726 4946 4884.726 4967 4884.726 5011 C 4884.726 5043 4889.726 5072 4894.726 5075 C 4900.726 5079 4904.726 5055 4904.726 5009 C 4904.726 4939 4905.726 4937 4923.726 4954 C 4936.726 4966 4944.726 4992 4949.726 5035 C 4958.726 5125 4974.726 5127 4974.726 5038 L 4975.726 4965 L 4994.726 4988 C 5006.726 5003 5015.726 5035 5020.726 5080 C 5023.726 5119 5031.726 5150 5035.726 5150 C 5040.726 5150 5044.726 5118 5044.726 5078 C 5044.726 5010 5045.726 5007 5061.726 5023 C 5072.726 5033 5079.726 5061 5082.726 5099 C 5085.726 5137 5091.726 5161 5100.726 5164 C 5111.726 5168 5114.726 5156 5114.726 5109 C 5114.726 5023 5136.726 5036 5151.726 5131 C 5157.726 5172 5164.726 5207 5165.726 5210 C 5167.726 5213 5170.726 5181 5173.726 5140 L 5179.726 5065 L 5197.726 5091 C 5207.726 5106 5217.726 5142 5220.726 5171 C 5229.726 5257 5238.726 5261 5244.726 5183 C 5251.726 5087 5271.726 5098 5286.726 5204 C 5292.726 5246 5301.726 5280 5306.726 5280 C 5310.726 5280 5314.726 5248 5314.726 5208 C 5314.726 5139 5315.726 5137 5331.726 5153 C 5344.726 5165 5350.726 5191 5352.726 5245 C 5354.726 5286 5360.726 5320 5365.726 5320 C 5369.726 5320 5374.726 5288 5376.726 5248 C 5379.726 5180 5380.726 5177 5397.726 5194 C 5410.726 5207 5414.726 5228 5414.726 5285 C 5414.726 5326 5418.726 5361 5423.726 5364 C 5434.726 5371 5444.726 5321 5444.726 5257 L 5444.726 5206 L 5465.726 5227 C 5527.726 5289 5480.726 5469 5370.726 5588 C 5316.726 5646 5204.726 5703 5204.726 5672 Z M 5184.726 5569 C 5252.726 5528 5334.726 5431 5334.726 5391 C 5334.726 5383 5320.726 5397 5304.726 5422 C 5276.726 5465 5207.726 5533 5153.726 5572 C 5119.726 5596 5142.726 5594 5184.726 5569 Z" style="fill: rgb(107, 107, 107);"/>
    <path d="M8667 5673 c-4 -3 -7 -17 -7 -30 0 -16 6 -23 20 -23 25 0 36 25 20 45 -14 16 -23 19 -33 8z"/>
    <path d="M3527 5545 c-9 -21 -3 -432 5 -440 4 -4 14 -5 23 -2 13 6 15 35 15 200 0 107 -3 209 -6 226 -7 32 -28 42 -37 16z"/>
    <path d="M6680 5285 c0 -174 1 -185 20 -195 20 -11 20 -8 20 185 0 188 -1 195 -20 195 -19 0 -20 -7 -20 -185z"/>
    <path d="M4281 5231 c-11 -7 -3 -15 30 -31 64 -33 161 -137 198 -212 18 -36 37 -95 44 -132 15 -89 33 -80 30 15 -3 61 -9 86 -38 145 -71 144 -204 253 -264 215z" style="fill: rgb(107, 107, 107);"/>
    <path d="M5783 5226 c-18 -8 -33 -19 -33 -24 0 -4 48 -16 108 -25 294 -47 439 -80 652 -149 322 -104 591 -229 810 -377 182 -122 222 -154 346 -276 58 -58 113 -105 120 -105 53 0 -48 140 -189 260 -163 141 -458 318 -707 425 -220 95 -529 192 -768 241 -206 42 -295 50 -339 30z"/>
    <path d="M4160 5183 c0 -5 25 -21 55 -37 124 -65 225 -235 225 -379 0 -34 4 -47 13 -44 8 3 12 31 12 93 0 79 -3 96 -32 156 -40 85 -110 160 -179 193 -52 24 -94 32 -94 18z" style="fill: rgb(107, 107, 107);"/>
    <path d="M5665 5086 c-495 -254 -646 -333 -955 -496 -368 -194 -394 -209 -387 -216 3 -3 65 26 138 64 280 145 515 265 844 432 525 266 535 271 535 281 0 19 -40 5 -175 -65z"/>
    <path d="M4087 5132 c-33 -7 -769 -369 -768 -378 0 -5 13 -12 29 -15 73 -15 171 -107 222 -209 24 -47 33 -82 38 -141 6 -62 10 -77 21 -70 8 5 15 34 18 73 7 86 -14 156 -72 238 l-46 65 51 -53 c68 -73 80 -99 93 -208 10 -86 12 -93 26 -79 12 12 16 38 16 108 0 113 -5 133 -51 192 -19 26 -33 50 -30 53 4 3 13 -3 21 -14 74 -97 84 -127 85 -241 0 -40 4 -73 9 -73 16 0 31 62 32 134 2 88 16 45 18 -53 1 -55 3 -62 16 -51 11 9 15 34 15 95 0 92 -12 118 -93 204 -23 24 -33 39 -22 33 27 -14 87 -79 113 -123 14 -22 24 -62 28 -107 11 -115 37 -85 35 39 -1 81 -24 138 -76 190 -19 19 -35 38 -35 44 0 17 81 -69 107 -112 19 -33 26 -63 31 -130 l7 -88 20 30 c16 23 20 45 19 105 -1 83 -14 117 -73 189 -20 24 -31 42 -24 40 6 -2 34 -32 62 -66 53 -67 65 -106 65 -211 l0 -53 20 21 c17 16 22 36 24 98 4 72 -1 95 -33 177 -6 14 -1 11 15 -8 30 -38 50 -108 50 -181 l1 -61 19 24 c16 19 20 38 20 102 0 86 -22 146 -73 202 -36 38 -16 34 22 -5 50 -51 74 -112 79 -200 7 -125 42 -87 42 45 -1 82 -15 131 -55 185 l-28 37 30 -28 c17 -16 42 -52 57 -82 22 -45 26 -67 26 -137 l0 -82 23 22 c20 20 22 32 22 115 0 77 -4 99 -23 135 -13 24 -21 46 -18 49 3 4 20 -24 37 -62 26 -55 32 -81 33 -140 1 -54 4 -71 14 -68 19 8 27 51 25 143 l-1 85 15 -40 c8 -22 15 -66 16 -97 1 -32 5 -58 8 -58 43 0 36 146 -10 242 -62 127 -187 227 -264 210z m-109 -327 c-3 -3 -9 2 -12 12 -6 14 -5 15 5 6 7 -7 10 -15 7 -18z" style="fill: rgb(107, 107, 107);"/>
    <path d="M5885 5068 c-108 -59 -983 -498 -1175 -589 -278 -131 -852 -422 -1040 -527 -107 -60 -219 -122 -247 -138 -29 -16 -53 -35 -53 -41 0 -22 54 -14 101 15 24 15 114 66 199 112 85 46 180 98 210 115 145 85 667 352 1120 572 440 214 1040 517 1040 525 0 22 -74 1 -155 -44z"/>
    <path d="M6150 5071 c-69 -51 -716 -375 -994 -498 -439 -193 -779 -364 -1331 -670 -314 -174 -341 -193 -277 -193 15 0 63 21 107 46 78 44 259 144 380 209 33 17 107 58 165 90 280 155 790 411 1255 630 352 166 769 378 767 390 -3 18 -46 15 -72 -4z"/>
    <path d="M6145 4931 c-115 -59 -275 -135 -355 -170 -539 -236 -1052 -493 -1745 -874 -321 -176 -365 -203 -365 -217 0 -30 46 -12 217 83 190 106 277 153 633 345 190 102 619 318 789 398 251 117 1066 523 1069 532 8 25 -40 6 -243 -97z"/>
    <path d="M1432 4968 c2 -13 10 -23 18 -23 8 0 16 10 18 23 3 17 -2 22 -18 22 -16 0 -21 -5 -18 -22z"/>
    <path d="M6515 4981 c-11 -10 -175 -85 -400 -182 -243 -104 -650 -312 -653 -333 -6 -29 17 -20 338 134 161 77 294 140 296 140 12 0 470 233 472 241 5 12 -41 12 -53 0z"/>
    <path d="M6640 4869 c-47 -28 -107 -62 -135 -76 -27 -14 -75 -40 -105 -58 -30 -18 -109 -63 -175 -101 -66 -37 -183 -104 -260 -149 -171 -100 -240 -137 -375 -205 -229 -115 -290 -152 -290 -177 0 -13 3 -23 6 -23 7 0 145 69 274 138 204 108 181 96 420 232 80 46 174 100 210 120 129 74 217 125 335 195 66 40 142 84 168 99 46 26 57 48 26 54 -8 1 -52 -21 -99 -49z"/>
    <path d="M6684 4757 c-98 -57 -264 -153 -369 -214 -256 -149 -490 -274 -1000 -538 -845 -437 -925 -480 -925 -496 0 -29 82 5 345 146 50 26 275 142 500 258 481 245 876 454 960 507 33 20 128 75 210 122 277 158 505 299 500 309 -13 20 -49 5 -221 -94z"/>
    <path d="M6848 4721 c-69 -42 -179 -109 -245 -150 -284 -179 -595 -357 -788 -453 -16 -8 -113 -57 -215 -110 -102 -53 -257 -133 -345 -178 -348 -178 -602 -313 -626 -331 l-24 -19 34 0 c24 0 106 37 285 129 138 71 350 179 471 241 121 62 296 153 388 201 92 49 170 89 173 89 6 0 143 75 314 173 58 33 218 131 355 217 138 86 283 176 323 199 72 42 93 72 50 70 -13 -1 -80 -35 -150 -78z"/>
    <path d="M6140 4677 c-294 -137 -692 -360 -698 -390 -5 -26 13 -21 117 35 126 68 502 283 566 323 28 18 83 49 123 69 39 20 72 38 72 41 0 7 14 13 -180 -78z"/>
    <path d="M7060 4713 c-160 -90 -231 -131 -275 -158 -27 -18 -111 -70 -185 -118 -362 -229 -451 -279 -1065 -597 -553 -286 -695 -362 -695 -373 0 -30 115 23 735 341 538 275 701 368 1180 674 42 26 212 127 328 193 67 39 86 66 45 64 -13 -1 -43 -12 -68 -26z"/>
    <path d="M3262 4698 c-9 -9 -2 -19 28 -46 44 -37 50 -60 21 -86 -18 -16 -19 -16 -25 16 -6 31 -47 69 -96 89 -49 20 -80 -40 -40 -76 22 -20 27 -45 8 -44 -27 1 -49 16 -61 39 -19 37 -62 39 -79 3 -12 -25 -19 -28 -55 -25 -49 3 -60 -8 -35 -36 11 -14 34 -22 68 -26 29 -3 82 -19 118 -36 56 -25 69 -35 83 -67 8 -21 26 -51 39 -66 19 -23 22 -32 14 -48 -15 -26 -37 -24 -44 5 -3 13 -17 34 -31 47 -13 13 -25 34 -25 47 0 13 -5 32 -10 42 -9 17 -13 17 -36 5 -25 -12 -29 -11 -58 16 -33 31 -73 38 -82 14 -9 -23 -40 -18 -59 11 -18 28 -24 28 -98 2 -37 -13 -38 -14 -32 -50 7 -38 7 -38 -29 -38 -44 0 -54 -15 -27 -44 25 -27 26 -39 4 -76 -16 -28 -16 -29 20 -74 27 -32 37 -54 37 -79 0 -38 25 -67 58 -67 26 0 37 -17 33 -49 -2 -21 0 -23 21 -16 12 4 38 9 56 12 26 4 32 2 32 -12 0 -12 5 -15 16 -11 9 3 18 6 20 6 15 0 -1 38 -23 56 -16 12 -25 25 -22 28 9 10 61 -12 75 -32 11 -16 14 -15 34 3 19 17 21 27 16 64 -3 25 -11 48 -18 52 -16 10 -1 41 19 37 12 -2 20 -21 28 -70 6 -37 14 -71 18 -75 9 -8 66 22 84 44 17 21 -3 73 -28 73 -23 0 -25 28 -4 37 9 3 22 -2 30 -13 13 -18 14 -18 32 -1 32 28 43 22 30 -18 -6 -19 -8 -38 -4 -41 12 -13 58 7 96 41 38 35 61 44 61 25 0 -41 94 57 110 115 33 118 -68 318 -192 381 -52 27 -78 30 -96 12z m134 -151 c6 -20 22 -37 42 -47 34 -16 39 -29 20 -48 -19 -19 -31 -14 -66 28 -28 34 -32 45 -26 75 7 40 14 38 30 -8z m-116 -46 c0 -6 13 -18 29 -27 31 -18 46 -50 29 -60 -5 -3 -22 5 -36 18 -15 13 -39 30 -54 38 -22 10 -25 16 -17 27 13 15 49 18 49 4z m-350 -136 c22 -22 40 -32 45 -26 10 9 39 15 60 12 22 -3 43 -28 49 -59 10 -43 -16 -44 -34 -2 -15 37 -39 38 -70 5 -20 -22 -22 -29 -12 -43 7 -9 22 -37 34 -60 23 -44 23 -44 3 -58 -19 -14 -20 -13 -28 25 -6 32 -14 42 -33 47 -17 4 -24 13 -24 29 0 13 5 27 10 30 20 13 9 38 -37 80 -33 30 -54 42 -66 39 -16 -5 -17 -3 -8 14 9 18 16 19 43 11 17 -5 48 -25 68 -44z m442 -54 c10 -25 12 -44 6 -55 -15 -26 -26 -19 -33 24 -4 22 -11 42 -16 46 -16 9 -10 24 9 24 13 0 24 -13 34 -39z m102 25 c-3 -9 1 -13 13 -13 21 2 20 -29 -2 -52 -12 -12 -16 -10 -27 15 -7 16 -18 35 -25 42 -19 19 -16 22 17 22 21 0 28 -4 24 -14z m-636 -78 c2 -12 -3 -18 -16 -18 -22 0 -46 23 -35 34 13 13 48 1 51 -16z m16 -104 c9 -3 16 -13 16 -21 0 -21 -44 -12 -48 10 -4 18 6 21 32 11z m308 -56 c-6 -6 -15 -8 -19 -4 -4 4 -1 11 7 16 19 12 27 3 12 -12z" style="fill: rgb(46, 46, 46);"/>
    <path d="M7180 4644 c-41 -24 -237 -140 -405 -239 -505 -298 -600 -352 -1270 -716 -346 -189 -375 -205 -375 -219 0 -30 73 2 340 147 91 50 293 160 450 245 157 86 312 171 345 190 33 20 94 55 135 78 118 68 655 387 764 454 54 34 99 66 100 71 2 20 -40 14 -84 -11z"/>
    <path d="M7215 4533 c-60 -36 -164 -98 -230 -137 -66 -40 -187 -114 -270 -165 -278 -171 -671 -395 -1072 -611 -106 -56 -207 -116 -225 -132 l-33 -29 30 6 c49 11 397 191 700 362 39 22 126 71 195 110 186 105 431 251 510 303 30 20 118 74 195 120 77 46 185 110 240 143 55 33 102 61 104 63 5 5 -20 34 -28 33 -3 0 -55 -30 -116 -66z"/>
    <path d="M7320 4461 c-52 -32 -174 -102 -270 -156 -321 -180 -335 -189 -338 -213 -2 -12 0 -22 3 -22 6 0 91 46 275 150 36 20 126 71 200 112 248 139 275 155 275 169 0 31 -52 16 -145 -40z"/>
    <path d="M5140 4339 c-321 -165 -571 -298 -850 -452 -129 -72 -271 -150 -315 -174 -44 -24 -94 -54 -110 -67 -26 -21 -28 -25 -13 -31 20 -8 94 26 233 106 192 111 870 473 1245 665 73 38 104 74 63 74 -10 0 -124 -55 -253 -121z"/>
    <path d="M7405 4373 c-181 -107 -595 -323 -660 -344 -100 -34 -970 -481 -1009 -520 -18 -17 27 -9 84 14 79 32 900 455 930 479 23 18 25 19 37 1 12 -16 16 -16 36 -3 12 8 85 48 162 90 604 330 584 318 571 339 -13 20 -40 10 -151 -56z"/>
    <path d="M7600 4346 c-14 -7 -79 -45 -145 -83 -212 -124 -480 -265 -915 -480 -234 -116 -434 -218 -445 -227 -12 -10 20 -2 85 20 165 56 829 381 1145 561 262 149 325 189 323 202 -4 21 -19 23 -48 7z"/>
    <path d="M2580 4284 c-46 -36 -66 -61 -57 -71 13 -13 127 70 127 93 0 23 -22 16 -70 -22z"/>
    <path d="M4990 4132 c-275 -146 -490 -263 -770 -417 -96 -53 -182 -109 -199 -129 -12 -14 -11 -16 7 -16 19 0 127 55 322 165 115 64 411 223 718 385 220 115 272 149 272 174 0 19 -68 -12 -350 -162z"/>
    <path d="M1880 3743 c0 -531 4 -603 36 -603 12 0 14 75 12 563 l-3 562 -22 3 -23 3 0 -528z"/>
    <path d="M7595 4204 c-206 -123 -343 -198 -575 -316 -245 -125 -353 -184 -315 -175 30 8 318 129 418 176 201 94 597 331 597 357 0 25 -33 14 -125 -42z"/>
    <path d="M8285 4238 c-3 -13 -4 -264 -3 -558 3 -484 5 -535 19 -538 9 -2 20 5 24 15 10 26 19 867 10 996 -6 96 -9 107 -26 107 -11 0 -21 -9 -24 -22z"/>
    <path d="M1463 4233 c-16 -6 -17 -39 -2 -49 6 -3 18 1 27 10 14 14 14 18 2 30 -8 7 -21 12 -27 9z"/>
    <path d="M2120 4227 c0 -8 53 -65 118 -128 198 -194 351 -298 647 -443 178 -88 224 -107 433 -186 119 -44 398 -124 559 -159 227 -50 591 -102 828 -118 208 -15 765 -9 945 11 517 54 940 147 1298 285 392 150 701 318 904 491 82 70 238 234 238 251 0 15 -103 10 -197 -11 -118 -26 -107 -21 -258 -120 -473 -314 -1001 -510 -1681 -624 -334 -56 -486 -68 -859 -68 -371 -1 -513 11 -895 78 -455 80 -912 225 -1265 402 -98 49 -301 172 -380 232 -28 20 -69 47 -92 58 -91 47 -343 82 -343 49z m272 -112 c30 -4 61 -17 90 -39 205 -157 524 -322 843 -438 332 -120 601 -188 955 -242 384 -58 420 -61 835 -61 415 0 439 2 855 66 247 38 590 122 817 200 300 104 655 274 866 417 128 86 148 96 200 102 31 3 57 3 56 0 -1 -17 -259 -201 -384 -275 -217 -128 -570 -283 -815 -358 -298 -92 -691 -169 -1058 -208 -276 -29 -794 -32 -1037 -5 -319 34 -603 81 -843 141 -454 112 -887 295 -1202 506 -144 97 -284 214 -245 205 11 -2 41 -7 67 -11z"/>
    <path d="M3740 4109 c-409 -209 -499 -259 -510 -280 -27 -50 36 -19 590 290 154 87 208 121 185 121 -6 0 -125 -59 -265 -131z"/>
    <path d="M8724 4189 c-8 -14 11 -33 25 -25 6 4 11 14 11 22 0 16 -26 19 -36 3z"/>
    <path d="M2638 4179 c-16 -9 -26 -49 -12 -49 5 0 45 19 52 25 5 4 -10 35 -17 35 -3 0 -14 -5 -23 -11z"/>
    <path d="M5185 4106 c-22 -13 -200 -109 -396 -214 -411 -221 -591 -324 -597 -340 -7 -22 39 -12 96 19 32 18 172 93 312 169 140 75 271 146 290 157 19 11 108 59 196 107 89 48 169 95 179 106 18 19 17 20 -11 19 -16 -1 -47 -11 -69 -23z"/>
    <path d="M8177 4103 c-5 -8 -10 -592 -8 -940 1 -175 3 -203 16 -203 9 0 20 12 25 26 6 16 9 232 8 572 -3 500 -4 547 -20 550 -9 2 -18 -1 -21 -5z"/>
    <path d="M2005 4088 c-3 -7 -4 -260 -3 -563 3 -542 3 -550 23 -550 20 0 20 7 20 560 0 525 -1 560 -18 563 -9 2 -19 -2 -22 -10z"/>
    <path d="M3430 4052 c-212 -98 -318 -151 -324 -160 -20 -33 34 -13 197 74 196 105 192 102 186 108 -2 2 -29 -8 -59 -22z"/>
    <path d="M2127 3873 c-9 -124 -9 -966 -1 -1015 6 -34 29 -57 43 -42 7 7 11 1110 4 1137 -2 9 -12 17 -22 17 -16 0 -19 -13 -24 -97z"/>
    <path d="M8015 3938 c-3 -18 -4 -285 -3 -593 3 -552 3 -560 23 -560 20 0 20 8 23 593 2 582 2 592 -17 592 -15 0 -22 -9 -26 -32z"/>
    <path d="M2265 3858 c-3 -7 -4 -274 -3 -593 l3 -580 23 -3 22 -3 0 595 c0 592 0 596 -20 596 -11 0 -23 -6 -25 -12z"/>
    <path d="M7853 3823 c-10 -4 -13 -133 -13 -598 0 -346 4 -596 9 -599 5 -4 16 -3 25 0 15 6 16 64 14 602 -2 386 -7 596 -13 598 -5 1 -16 0 -22 -3z"/>
    <path d="M2411 3767 c-8 -11 -10 -170 -9 -608 l3 -594 23 -3 22 -3 -2 607 c-3 609 -5 639 -37 601z"/>
    <path d="M7705 3728 c-3 -7 -4 -285 -3 -618 3 -530 5 -605 18 -605 13 0 15 75 15 614 0 482 -3 615 -12 618 -7 3 -15 -1 -18 -9z"/>
    <path d="M2552 3068 l3 -613 23 -3 22 -3 0 599 c0 330 -3 607 -6 616 -3 9 -15 16 -25 16 -19 0 -19 -16 -17 -612z"/>
    <path d="M7547 3633 c-4 -3 -7 -280 -7 -615 0 -549 2 -609 16 -615 9 -3 20 0 25 8 10 15 13 1188 3 1213 -6 16 -26 21 -37 9z"/>
    <path d="M2710 2970 c0 -613 0 -620 20 -620 12 0 20 7 20 18 6 221 10 1166 5 1190 -4 23 -11 32 -25 32 -20 0 -20 -11 -20 -620z"/>
    <path d="M7388 3503 c-8 -64 -10 -1137 -3 -1166 5 -17 14 -27 26 -27 18 0 19 18 19 615 0 596 -1 615 -19 615 -14 0 -20 -9 -23 -37z"/>
    <path d="M2895 3488 c-3 -7 -4 -290 -3 -628 l3 -615 23 -3 22 -3 -2 628 c-3 589 -4 628 -21 631 -9 2 -19 -2 -22 -10z"/>
    <path d="M7226 3409 c-8 -80 -8 -1106 0 -1148 5 -21 12 -31 25 -31 18 0 19 20 19 620 0 597 -1 620 -19 620 -15 0 -19 -11 -25 -61z"/>
    <path d="M3085 3408 c-3 -7 -4 -292 -3 -633 3 -612 3 -620 23 -620 20 0 20 7 20 630 0 592 -1 630 -18 633 -9 2 -19 -2 -22 -10z"/>
    <path d="M7065 3368 c-3 -18 -4 -298 -3 -623 l3 -590 23 -3 22 -3 0 625 c0 614 0 626 -20 626 -14 0 -21 -9 -25 -32z"/>
    <path d="M3276 3318 c-8 -30 -8 -1212 0 -1232 3 -9 15 -16 25 -16 18 0 19 19 19 635 0 615 -1 635 -19 635 -11 0 -21 -9 -25 -22z"/>
    <path d="M6897 3323 c-4 -3 -7 -287 -7 -630 l0 -624 22 3 21 3 -1 618 c-1 340 -4 623 -7 628 -7 11 -19 12 -28 2z"/>
    <path d="M3478 2653 c-3 -345 -3 -633 -1 -640 3 -7 14 -13 24 -13 18 0 19 19 19 640 0 616 -1 640 -19 640 -17 0 -18 -26 -23 -627z"/>
    <path d="M6700 3248 c-2 -433 1 -1242 5 -1249 4 -6 13 -6 23 0 16 9 17 57 14 633 -2 343 -6 626 -9 631 -10 16 -33 6 -33 -15z"/>
    <path d="M8682 3228 c-19 -19 -14 -46 9 -59 17 -9 25 -8 37 5 13 12 13 20 4 41 -13 27 -31 32 -50 13z"/>
    <path d="M1476 3214 c-8 -20 10 -54 29 -54 21 0 35 32 24 53 -12 21 -45 22 -53 1z"/>
    <path d="M3697 3209 c-16 -9 -17 -53 -17 -633 0 -534 2 -625 15 -636 8 -6 19 -9 25 -5 12 7 15 1271 2 1279 -4 2 -15 0 -25 -5z"/>
    <path d="M6507 3204 c-4 -4 -7 -290 -7 -635 0 -545 2 -628 15 -633 9 -3 19 3 25 14 7 12 9 230 8 637 -3 548 -5 618 -18 621 -9 1 -19 0 -23 -4z"/>
    <path d="M3907 3163 c-4 -3 -7 -294 -7 -645 0 -631 0 -638 20 -638 12 0 20 7 20 18 6 218 4 1233 -2 1250 -8 22 -19 28 -31 15z"/>
    <path d="M6306 3162 c-7 -12 -10 -1271 -3 -1279 3 -3 13 -3 22 0 13 6 15 76 13 643 -2 472 -6 638 -15 641 -6 2 -14 0 -17 -5z"/>
    <path d="M4110 3105 c-6 -15 -9 -269 -7 -643 2 -610 2 -617 22 -617 20 0 20 8 23 643 2 571 0 642 -13 642 -9 0 -20 -11 -25 -25z"/>
    <path d="M6100 3110 c-7 -12 -9 -232 -8 -642 3 -615 3 -623 23 -623 20 0 20 8 23 636 2 557 0 638 -13 643 -9 3 -19 -3 -25 -14z"/>
    <path d="M4322 2453 c3 -589 4 -648 19 -651 11 -2 18 5 20 20 2 13 3 305 1 651 -3 614 -4 627 -23 627 -19 0 -19 -11 -17 -647z"/>
    <path d="M5887 3094 c-4 -4 -7 -295 -7 -646 0 -576 2 -639 16 -645 9 -3 20 0 25 8 5 8 8 291 6 649 -2 564 -4 635 -17 638 -9 1 -19 0 -23 -4z"/>
    <path d="M4551 3067 c-8 -8 -11 -189 -11 -643 0 -541 2 -633 15 -644 8 -6 19 -9 25 -5 7 4 10 213 10 650 0 537 -2 644 -14 648 -7 3 -19 0 -25 -6z"/>
    <path d="M5667 3073 c-4 -3 -7 -296 -7 -650 l0 -644 23 3 22 3 3 634 c2 620 0 661 -28 661 -3 0 -10 -3 -13 -7z"/>
    <path d="M1584 3046 c-9 -24 4 -48 23 -44 12 2 18 12 18 28 0 29 -32 41 -41 16z"/>
    <path d="M4772 3051 c-9 -6 -12 -152 -10 -652 3 -636 3 -644 23 -644 20 0 20 8 23 641 2 662 1 678 -36 655z"/>
    <path d="M5462 3051 c-9 -6 -12 -145 -10 -652 3 -565 5 -644 18 -644 13 0 15 79 18 644 1 355 -1 648 -6 653 -4 4 -13 4 -20 -1z"/>
    <path d="M8584 3046 c-9 -24 4 -48 23 -44 12 2 18 12 18 28 0 29 -32 41 -41 16z"/>
    <path d="M4987 3043 c-4 -3 -7 -296 -7 -650 0 -581 2 -644 16 -650 9 -3 20 0 25 8 9 14 11 1249 2 1282 -4 17 -24 23 -36 10z"/>
    <path d="M5230 2395 c0 -648 0 -655 20 -655 20 0 20 7 20 655 0 648 0 655 -20 655 -20 0 -20 -7 -20 -655z"/>
    <path d="M8334 2645 c-7 -18 3 -35 22 -35 8 0 14 10 14 25 0 27 -27 35 -36 10z"/>
    <path d="M2063 2404 c-3 -8 -1 -20 5 -26 16 -16 42 -2 42 22 0 24 -38 28 -47 4z"/>
    <path d="M8108 2408 c-8 -21 2 -38 23 -38 14 0 19 7 19 25 0 18 -5 25 -19 25 -10 0 -21 -6 -23 -12z"/>
    <path d="M7960 2255 c-14 -16 -5 -35 16 -35 15 0 20 35 5 44 -5 3 -14 -1 -21 -9z"/>
    <path d="M2336 2161 c-10 -16 6 -42 23 -39 9 2 17 13 19 26 3 16 -2 22 -17 22 -11 0 -22 -4 -25 -9z"/>
    <path d="M7814 2146 c-8 -22 3 -49 19 -43 6 2 12 14 12 27 0 27 -22 39 -31 16z"/>
    <path d="M7667 2013 c-4 -3 -7 -15 -7 -25 0 -13 7 -18 25 -18 20 0 25 5 25 25 0 18 -5 25 -18 25 -10 0 -22 -3 -25 -7z"/>
    <path d="M2604 1915 c-9 -23 10 -41 146 -130 487 -321 1043 -542 1592 -635 549 -92 996 -91 1561 4 411 70 887 238 1240 437 187 106 388 235 414 267 9 11 9 20 2 34 -10 19 -11 19 -37 2 -118 -78 -382 -234 -483 -288 -433 -228 -923 -375 -1434 -430 -27 -3 -97 -11 -155 -17 -138 -15 -532 -15 -690 0 -776 74 -1366 278 -2007 692 -67 44 -126 79 -133 79 -6 0 -13 -7 -16 -15z"/>
  </g>
  <text style="fill: rgb(55, 3, 3); font-family: 'ADLaM Display'; font-size: 94px; white-space: pre; transform-box: fill-box; transform-origin: 50% 50%;" transform="matrix(0.867775, 0.076295, -0.093897, 1.067974, 38.740173, 9.399166)"><textPath xlink:href="#path-1">Ceni Shop</textPath></text>
</svg>